<?xml version="1.0" encoding="utf-8"?>
<!-- Generator: Adobe Illustrator 16.0.0, SVG Export Plug-In . SVG Version: 6.00 Build 0)  -->
<!DOCTYPE svg PUBLIC "-//W3C//DTD SVG 1.1//EN" "http://www.w3.org/Graphics/SVG/1.1/DTD/svg11.dtd">
<svg version="1.1" id="Icons" xmlns="http://www.w3.org/2000/svg" xmlns:xlink="http://www.w3.org/1999/xlink" x="0px" y="0px"
	 width="94.921px" height="99.901px" viewBox="0 0 94.921 99.901" enable-background="new 0 0 94.921 99.901" xml:space="preserve">
<g>
	<g>
		<path fill="none" stroke="#FFFFFF" stroke-width="4" d="M15.875,42.347V5.297C15.875,3.476,17.349,2,19.169,2h55.38
			c1.82,0,3.295,1.476,3.295,3.297v46.659"/>
		<line fill="none" stroke="#FFFFFF" stroke-width="4" x1="52.513" y1="87.315" x2="38.237" y2="87.315"/>
		<line fill="none" stroke="#FFFFFF" stroke-width="4" x1="47.571" y1="80.138" x2="28.237" y2="80.138"/>
		<line fill="none" stroke="#FFFFFF" stroke-width="4" x1="21.585" y1="11.703" x2="72.134" y2="11.703"/>
	</g>
	<path fill="none" stroke="#FFFFFF" stroke-width="4" d="M88.7,99.901v-5.066c2.561-1.914,4.221-4.959,4.221-8.399V68.219
		l-0.195-4.023c0-2.157-1.747-3.905-3.903-3.905s-3.904,0.772-3.904,2.928v-0.975c0-2.158-1.747-3.904-3.902-3.904
		s-3.903,1.746-3.903,3.904V60.29c0-2.155-1.748-3.902-3.904-3.902s-3.902,1.747-3.902,3.902v2.197
		c0-5.286-0.035-22.489-0.035-22.489c0-2.226-1.812-4.038-4.04-4.038c-2.23,0-4.036,1.813-4.036,4.038l-0.022,39.454l-0.081-1.922
		v-8.066c0-3.293-2.665-5.962-5.964-5.962h-1.985c-0.086,0,0.082,0.007,0,0.013v7.464c0.011,0-0.016,0.003,0,0.006v9.903
		l11.304,13.436c0,0,2.929,1.857,4.732,2.297v3.281"/>
	<g>
		<path fill="none" stroke="#FFFFFF" stroke-width="4" d="M6.877,86.765V60.942l5.877-13.299l0.046-0.1l13.272,0.2
			c0.005,0.094,0.016,0.184,0.013,0.278l-0.035,2.209c-0.059,3.661-3.076,6.582-6.735,6.521l-1.453-0.046l-2.053,6.161
			c4.169,3.074,6.987,8.943,6.987,15.681c0,3.085-0.591,5.988-1.632,8.523"/>
	</g>
	<polyline fill="none" stroke="#FFFFFF" stroke-width="4" points="32.896,99.901 32.896,87.43 2,87.43 2,99.901 	"/>
	<rect x="26.347" y="19.622" fill="none" stroke="#FFFFFF" stroke-width="4" width="16" height="12"/>
	<line fill="none" stroke="#FFFFFF" stroke-width="4" x1="24.097" y1="39.622" x2="54.514" y2="39.622"/>
	<line fill="none" stroke="#FFFFFF" stroke-width="4" x1="31.097" y1="47.622" x2="54.514" y2="47.622"/>
	<line fill="none" stroke="#FFFFFF" stroke-width="4" x1="31.097" y1="55.622" x2="54.514" y2="55.622"/>
	<line fill="none" stroke="#FFFFFF" stroke-width="4" x1="24.097" y1="63.622" x2="46.764" y2="63.622"/>
	<line fill="none" stroke="#FFFFFF" stroke-width="4" stroke-dasharray="4" x1="65.237" y1="29.472" x2="65.237" y2="16.972"/>
</g>
</svg>
