<?xml version="1.0" encoding="utf-8"?>
<!-- Generator: Adobe Illustrator 16.0.0, SVG Export Plug-In . SVG Version: 6.00 Build 0)  -->
<!DOCTYPE svg PUBLIC "-//W3C//DTD SVG 1.1//EN" "http://www.w3.org/Graphics/SVG/1.1/DTD/svg11.dtd">
<svg version="1.1" id="Icons" xmlns="http://www.w3.org/2000/svg" xmlns:xlink="http://www.w3.org/1999/xlink" x="0px" y="0px"
	 width="99.139px" height="95.979px" viewBox="0 0 99.139 95.979" enable-background="new 0 0 99.139 95.979" xml:space="preserve">
<g>
	<g>
		<g>
			<path fill="none" stroke="#FFFFFF" stroke-width="4" d="M78.867,92.74c0,0.686-0.556,1.238-1.239,1.238H3.239
				C2.558,93.979,2,93.426,2,92.74V62.129c0-0.684,0.558-1.237,1.239-1.237h74.389c0.684,0,1.239,0.554,1.239,1.237V92.74z"/>
			<g>
				<g>
					<line fill="none" stroke="#FFFFFF" stroke-width="4" x1="8.259" y1="69.33" x2="14.09" y2="69.33"/>
					<line fill="none" stroke="#FFFFFF" stroke-width="4" x1="18.013" y1="69.33" x2="23.843" y2="69.33"/>
					<line fill="none" stroke="#FFFFFF" stroke-width="4" x1="27.767" y1="69.33" x2="33.595" y2="69.33"/>
					<line fill="none" stroke="#FFFFFF" stroke-width="4" x1="37.52" y1="69.33" x2="43.349" y2="69.33"/>
					<line fill="none" stroke="#FFFFFF" stroke-width="4" x1="47.274" y1="69.33" x2="53.103" y2="69.33"/>
					<line fill="none" stroke="#FFFFFF" stroke-width="4" x1="57.028" y1="69.33" x2="62.855" y2="69.33"/>
					<line fill="none" stroke="#FFFFFF" stroke-width="4" x1="66.78" y1="69.33" x2="72.608" y2="69.33"/>
				</g>
				<g>
					<line fill="none" stroke="#FFFFFF" stroke-width="4" x1="8.259" y1="77.436" x2="14.09" y2="77.436"/>
					<line fill="none" stroke="#FFFFFF" stroke-width="4" x1="18.013" y1="77.436" x2="23.843" y2="77.436"/>
					<line fill="none" stroke="#FFFFFF" stroke-width="4" x1="27.767" y1="77.436" x2="33.595" y2="77.436"/>
					<line fill="none" stroke="#FFFFFF" stroke-width="4" x1="37.52" y1="77.436" x2="43.349" y2="77.436"/>
					<line fill="none" stroke="#FFFFFF" stroke-width="4" x1="47.274" y1="77.436" x2="53.103" y2="77.436"/>
					<line fill="none" stroke="#FFFFFF" stroke-width="4" x1="57.028" y1="77.436" x2="62.855" y2="77.436"/>
					<line fill="none" stroke="#FFFFFF" stroke-width="4" x1="66.78" y1="77.436" x2="72.608" y2="77.436"/>
				</g>
				<g>
					<line fill="none" stroke="#FFFFFF" stroke-width="4" x1="8.259" y1="85.541" x2="14.09" y2="85.541"/>
					<line fill="none" stroke="#FFFFFF" stroke-width="4" x1="18.013" y1="85.541" x2="23.843" y2="85.541"/>
					<line fill="none" stroke="#FFFFFF" stroke-width="4" x1="27.767" y1="85.541" x2="62.946" y2="85.541"/>
					<line fill="none" stroke="#FFFFFF" stroke-width="4" x1="66.78" y1="85.541" x2="72.608" y2="85.541"/>
				</g>
			</g>
		</g>
	</g>
	<path fill="none" stroke="#FFFFFF" stroke-width="4" stroke-dasharray="4" d="M34.059,19.052h-15.55
		c-8.201,0-14.849,6.646-14.849,14.849l0,0c0,8.199,6.647,14.848,14.849,14.848h60.103"/>
	<g>
		<path fill="none" stroke="#FFFFFF" stroke-width="4" d="M97.139,58.748c0,0.681-0.068,1.346-0.197,1.989"/>
		<path fill="none" stroke="#FFFFFF" stroke-width="4" stroke-dasharray="4.0409,4.0409" d="M95.37,64.429
			c-1.804,2.61-4.817,4.319-8.231,4.319h-4.48"/>
		<line fill="none" stroke="#FFFFFF" stroke-width="4" x1="80.639" y1="68.748" x2="78.639" y2="68.748"/>
	</g>
	<path fill="none" d="M39.639,48.748"/>
	<g>
		<circle fill="none" stroke="#FFFFFF" stroke-width="4" cx="18.978" cy="29.901" r="3.639"/>
		<path fill="none" stroke="#FFFFFF" stroke-width="4" d="M21.708,34.922H16.25c-2.011,0-3.641,1.629-3.641,3.639v0.297
			c1.665,1.567,3.902,2.533,6.368,2.533c2.469,0,4.705-0.966,6.368-2.533v-0.297C25.346,36.551,23.718,34.922,21.708,34.922z"/>
	</g>
	<g>
		<circle fill="none" stroke="#FFFFFF" stroke-width="4" cx="89.478" cy="44.651" r="3.639"/>
		<path fill="none" stroke="#FFFFFF" stroke-width="4" d="M92.208,49.672H86.75c-2.011,0-3.641,1.629-3.641,3.639v0.297
			c1.665,1.567,3.902,2.533,6.368,2.533c2.469,0,4.705-0.966,6.368-2.533v-0.297C95.846,51.301,94.218,49.672,92.208,49.672z"/>
	</g>
	<g>
		<path fill="none" stroke="#FFFFFF" stroke-width="4" d="M57.189,39.135c-10.238,0-18.568-8.328-18.568-18.566S46.951,2,57.189,2
			s18.567,8.33,18.567,18.568S67.428,39.135,57.189,39.135z"/>
		<circle fill="none" stroke="#FFFFFF" stroke-width="4" cx="57.189" cy="18.763" r="5.415"/>
		<path fill="none" stroke="#FFFFFF" stroke-width="4" d="M66.666,36.441v-6.247c0-2.991-2.425-5.415-5.415-5.415h-8.123
			c-2.99,0-5.415,2.424-5.415,5.415v6.247"/>
	</g>
</g>
</svg>
