<?xml version="1.0" encoding="utf-8"?>
<!-- Generator: Adobe Illustrator 16.0.0, SVG Export Plug-In . SVG Version: 6.00 Build 0)  -->
<!DOCTYPE svg PUBLIC "-//W3C//DTD SVG 1.1//EN" "http://www.w3.org/Graphics/SVG/1.1/DTD/svg11.dtd">
<svg version="1.1" id="Icons" xmlns="http://www.w3.org/2000/svg" xmlns:xlink="http://www.w3.org/1999/xlink" x="0px" y="0px"
	 width="116.437px" height="77.594px" viewBox="0 0 116.437 77.594" enable-background="new 0 0 116.437 77.594"
	 xml:space="preserve">
<g>
	<line fill="none" stroke="#FFFFFF" stroke-width="4" x1="101.529" y1="43.49" x2="101.529" y2="67.65"/>
	<path fill="none" stroke="#FFFFFF" stroke-width="4" d="M14.904,67.65V12.718c0-1.633,1.329-2.96,2.959-2.96h43.016"/>
	<g>
		<path fill="none" stroke="#FFFFFF" stroke-width="4" d="M105.521,2H70.34c-1.674,0-3.027,1.567-3.027,3.502v28.607
			c0,1.932,1.354,3.498,3.027,3.498h5.394v6.707l7.914-6.707h21.873c1.677,0,3.033-1.566,3.033-3.498V5.502
			C108.554,3.567,107.197,2,105.521,2z"/>
		<polygon fill="none" stroke="#FFFFFF" stroke-width="4" points="97.34,18.825 89.923,23.107 82.504,27.391 82.504,18.825 
			82.504,10.259 89.923,14.542 		"/>
	</g>
	<g>
		<path fill="none" stroke="#FFFFFF" stroke-width="4" d="M22.362,66.309v-4.14c0-2.856,2.616-5.171,5.844-5.171H53.85
			c3.228,0,5.843,2.314,5.843,5.171v3.032"/>
		<line fill="none" stroke="#FFFFFF" stroke-width="4" x1="36.004" y1="57.051" x2="36.004" y2="52.332"/>
		<line fill="none" stroke="#FFFFFF" stroke-width="4" x1="45.822" y1="52.332" x2="45.822" y2="57.051"/>
		<path fill="none" stroke="#FFFFFF" stroke-width="4" d="M52.507,30.206v11.175c0,6.43-5.212,10.539-11.643,10.539l0,0
			c-6.431,0-11.643-4.109-11.643-10.539v-2.083"/>
		<path fill="none" stroke="#FFFFFF" stroke-width="4" d="M35.574,20.205c-2.114,0-3.974,1.089-5.055,2.732h-2.074
			c-2.586,0-4.685,2.098-4.685,4.685v9.097l5.516,6.653v-8.881c0-1.82,1.477-3.297,3.297-3.297h1.922h13.99h3.021
			c3.34,0,6.045-2.707,6.045-6.044v-4.945H35.574z"/>
	</g>
	<path fill="none" stroke="#FFFFFF" stroke-width="4" d="M2,67.377v5.314c0,0,3.885,2.902,6.741,2.902h35.771h27.409h35.772
		c2.856,0,6.743-2.902,6.743-2.902v-5.314H2z"/>
</g>
</svg>
