<?xml version="1.0" encoding="utf-8"?>
<!-- Generator: Adobe Illustrator 16.0.0, SVG Export Plug-In . SVG Version: 6.00 Build 0)  -->
<!DOCTYPE svg PUBLIC "-//W3C//DTD SVG 1.1//EN" "http://www.w3.org/Graphics/SVG/1.1/DTD/svg11.dtd">
<svg version="1.1" id="Icons" xmlns="http://www.w3.org/2000/svg" xmlns:xlink="http://www.w3.org/1999/xlink" x="0px" y="0px"
	 width="97.599px" height="89.51px" viewBox="0 0 97.599 89.51" enable-background="new 0 0 97.599 89.51" xml:space="preserve">
<g>
	<g>
		<path fill="none" stroke="#FFFFFF" stroke-width="4" d="M48.538,47.355V9.598C48.538,5.4,45.139,2,40.94,2H2.103v45.355"/>
		<path fill="none" stroke="#FFFFFF" stroke-width="4" d="M49.162,47.355V9.598C49.162,5.4,52.564,2,56.762,2h38.837v72.186H88.65"
			/>
	</g>
	<g>
		<line fill="none" stroke="#FFFFFF" stroke-width="4" x1="9.829" y1="12.014" x2="27.904" y2="12.014"/>
		<line fill="none" stroke="#FFFFFF" stroke-width="4" x1="9.829" y1="23.76" x2="40.276" y2="23.76"/>
		<line fill="none" stroke="#FFFFFF" stroke-width="4" x1="9.829" y1="32.381" x2="40.276" y2="32.381"/>
		<line fill="none" stroke="#FFFFFF" stroke-width="4" x1="9.829" y1="41.002" x2="31.571" y2="41.002"/>
	</g>
	<g>
		<g>
			<path fill="none" stroke="#FFFFFF" stroke-width="4" d="M82.299,86.217c0,0.715-0.58,1.293-1.295,1.293H3.295
				C2.583,87.51,2,86.932,2,86.217V54.238c0-0.713,0.583-1.293,1.295-1.293h77.709c0.715,0,1.295,0.58,1.295,1.293V86.217z"/>
			<g>
				<g>
					<line fill="none" stroke="#FFFFFF" stroke-width="4" x1="8.538" y1="61.76" x2="14.63" y2="61.76"/>
					<line fill="none" stroke="#FFFFFF" stroke-width="4" x1="18.728" y1="61.76" x2="24.818" y2="61.76"/>
					<line fill="none" stroke="#FFFFFF" stroke-width="4" x1="28.917" y1="61.76" x2="35.005" y2="61.76"/>
					<line fill="none" stroke="#FFFFFF" stroke-width="4" x1="39.105" y1="61.76" x2="45.194" y2="61.76"/>
					<line fill="none" stroke="#FFFFFF" stroke-width="4" x1="49.296" y1="61.76" x2="55.384" y2="61.76"/>
					<line fill="none" stroke="#FFFFFF" stroke-width="4" x1="59.485" y1="61.76" x2="65.572" y2="61.76"/>
					<line fill="none" stroke="#FFFFFF" stroke-width="4" x1="69.673" y1="61.76" x2="75.761" y2="61.76"/>
				</g>
				<g>
					<line fill="none" stroke="#FFFFFF" stroke-width="4" x1="8.538" y1="70.229" x2="14.63" y2="70.229"/>
					<line fill="none" stroke="#FFFFFF" stroke-width="4" x1="18.728" y1="70.229" x2="24.818" y2="70.229"/>
					<line fill="none" stroke="#FFFFFF" stroke-width="4" x1="28.917" y1="70.229" x2="35.005" y2="70.229"/>
					<line fill="none" stroke="#FFFFFF" stroke-width="4" x1="39.105" y1="70.229" x2="45.194" y2="70.229"/>
					<line fill="none" stroke="#FFFFFF" stroke-width="4" x1="49.296" y1="70.229" x2="55.384" y2="70.229"/>
					<line fill="none" stroke="#FFFFFF" stroke-width="4" x1="59.485" y1="70.229" x2="65.572" y2="70.229"/>
					<line fill="none" stroke="#FFFFFF" stroke-width="4" x1="69.673" y1="70.229" x2="75.761" y2="70.229"/>
				</g>
				<g>
					<line fill="none" stroke="#FFFFFF" stroke-width="4" x1="8.538" y1="78.695" x2="14.63" y2="78.695"/>
					<line fill="none" stroke="#FFFFFF" stroke-width="4" x1="18.728" y1="78.695" x2="24.818" y2="78.695"/>
					<line fill="none" stroke="#FFFFFF" stroke-width="4" x1="28.917" y1="78.695" x2="65.667" y2="78.695"/>
					<line fill="none" stroke="#FFFFFF" stroke-width="4" x1="69.673" y1="78.695" x2="75.761" y2="78.695"/>
				</g>
			</g>
		</g>
	</g>
	<g>
		<g>
			<line fill="none" stroke="#FFFFFF" stroke-width="4" x1="71.926" y1="16.484" x2="71.926" y2="10.459"/>
			<line fill="none" stroke="#FFFFFF" stroke-width="4" x1="66.254" y1="20.168" x2="61.036" y2="17.158"/>
			<line fill="none" stroke="#FFFFFF" stroke-width="4" x1="66.608" y1="26.924" x2="61.39" y2="29.936"/>
			<line fill="none" stroke="#FFFFFF" stroke-width="4" x1="78.308" y1="26.311" x2="83.527" y2="29.322"/>
			<line fill="none" stroke="#FFFFFF" stroke-width="4" x1="77.953" y1="19.557" x2="83.172" y2="16.543"/>
		</g>
		<g>
			<polygon fill="none" stroke="#FFFFFF" stroke-width="4" points="72.379,29.383 75.439,34.793 78.498,40.207 72.283,40.15 
				66.064,40.094 69.223,34.738 			"/>
			<line fill="none" stroke="#FFFFFF" stroke-width="4" x1="72.283" y1="40.043" x2="72.216" y2="47.355"/>
		</g>
	</g>
</g>
</svg>
