<?xml version="1.0" encoding="utf-8"?>
<!-- Generator: Adobe Illustrator 22.0.0, SVG Export Plug-In . SVG Version: 6.00 Build 0)  -->
<svg version="1.1" id="Layer_1" xmlns="http://www.w3.org/2000/svg" xmlns:xlink="http://www.w3.org/1999/xlink" x="0px" y="0px"
	 viewBox="0 0 23.8 9.7" style="enable-background:new 0 0 23.8 9.7;" xml:space="preserve">
<style type="text/css">
	.st0{fill:#FEDA00;}
	.st1{fill:#FBBD16;}
	.st2{fill:#FFFFFF;}
</style>
<g>
	<path class="st0" d="M18,3.2c0.4-0.6,0.3-1.4-0.1-2c-0.4-0.5-0.9-0.7-1.5-0.6c0,0,0,0-0.1,0c-0.2,0-0.3,0.1-0.5,0.1
		c-0.3,0.1-0.5,0.3-0.6,0.6C15.1,1.7,15,2,15,2.3c0,0.5,0.2,1.1,0.6,1.4C16,3.9,16.7,4,17.1,3.9C17.5,3.8,17.8,3.6,18,3.2"/>
	<path class="st1" d="M17.7,3c0.3-0.4,0.3-1-0.1-1.5c-0.3-0.3-0.7-0.5-1.1-0.4c0,0,0,0,0,0c-0.1,0-0.2,0-0.3,0.1
		c-0.2,0.1-0.4,0.2-0.5,0.4c-0.1,0.2-0.2,0.4-0.2,0.6c0,0.4,0.1,0.8,0.4,1c0.3,0.2,0.8,0.2,1.1,0.2C17.3,3.4,17.5,3.2,17.7,3"/>
	<path class="st1" d="M17.9,2.9c-0.2,0.2-0.3,0.4-0.5,0.5c0,0,0,0.1,0,0C17.6,3.4,17.8,3.2,17.9,2.9C18,2.9,17.9,2.9,17.9,2.9"/>
	<path class="st1" d="M18,2.7C18,2.7,18,2.7,18,2.7c0,0.1,0,0.2,0,0.1C18,2.8,18,2.7,18,2.7C18.1,2.6,18,2.6,18,2.7"/>
	<path class="st1" d="M15.6,3.1c-0.1-0.2-0.3-0.5-0.3-0.7c0,0,0,0,0,0C15.3,2.7,15.4,3,15.6,3.1C15.6,3.2,15.6,3.2,15.6,3.1"/>
	<path class="st1" d="M15.9,3.4c0,0-0.1,0-0.1-0.1c0,0-0.1,0,0,0.1C15.8,3.4,15.8,3.4,15.9,3.4C15.9,3.4,15.9,3.4,15.9,3.4"/>
	<path class="st1" d="M15.6,1.3C15.6,1.3,15.6,1.4,15.6,1.3c-0.1,0.1-0.1,0.1-0.1,0.2c0,0,0,0,0,0c0,0,0,0,0-0.1
		C15.6,1.4,15.7,1.4,15.6,1.3C15.7,1.3,15.7,1.3,15.6,1.3"/>
	<path class="st1" d="M17,1c-0.2-0.1-0.4,0-0.6,0.1c0,0,0,0.1,0,0C16.6,1,16.8,1,17,1C17,1,17,1,17,1"/>
	<path class="st1" d="M17.4,1.1c0,0-0.1-0.1-0.1-0.1c0,0-0.1,0,0,0.1C17.3,1.1,17.3,1.1,17.4,1.1C17.4,1.2,17.4,1.1,17.4,1.1"/>
	<path class="st1" d="M16.8,3.6c-0.1,0-0.2,0-0.3,0c0,0,0,0.1,0,0.1C16.6,3.7,16.7,3.7,16.8,3.6C16.8,3.6,16.8,3.6,16.8,3.6"/>
	<path class="st0" d="M17.5,1.6C17.5,1.6,17.5,1.6,17.5,1.6c0.1,0.2,0.2,0.4,0.2,0.7c0,0,0.1,0,0.1,0C17.8,2,17.7,1.8,17.5,1.6"/>
	<path class="st0" d="M17.8,2.4C17.8,2.4,17.7,2.4,17.8,2.4C17.7,2.5,17.7,2.5,17.8,2.4C17.7,2.5,17.8,2.5,17.8,2.4
		C17.8,2.5,17.8,2.5,17.8,2.4"/>
	<path class="st0" d="M16.4,3.3c-0.1,0-0.3-0.1-0.4-0.1c0,0,0,0,0,0C16.1,3.3,16.2,3.4,16.4,3.3C16.4,3.4,16.4,3.3,16.4,3.3"/>
	<path class="st0" d="M17,3.3c0,0-0.1,0-0.1,0c0,0,0,0.1,0,0.1C16.9,3.3,16.9,3.3,17,3.3C17,3.3,17,3.2,17,3.3"/>
	<path class="st0" d="M15.6,1.7c-0.1,0.2-0.1,0.4-0.1,0.6c0,0,0,0,0,0C15.6,2.1,15.6,1.9,15.6,1.7C15.7,1.7,15.6,1.7,15.6,1.7"/>
	<path class="st0" d="M15.6,2.6L15.6,2.6C15.6,2.5,15.6,2.5,15.6,2.6C15.5,2.5,15.5,2.5,15.6,2.6C15.5,2.5,15.5,2.6,15.6,2.6
		C15.5,2.6,15.5,2.6,15.6,2.6C15.6,2.6,15.6,2.6,15.6,2.6C15.6,2.6,15.6,2.6,15.6,2.6"/>
	<path class="st0" d="M16.1,1.3c-0.1,0-0.1,0.1-0.2,0.1c0,0,0,0.1,0,0C16,1.4,16.1,1.4,16.1,1.3C16.2,1.3,16.2,1.3,16.1,1.3"/>
	<path class="st0" d="M16.4,0.5C16.3,0.4,16.5,0,16.7,0c0.2,0,0.3,0.4,0.3,0.5C16.9,0.5,16.5,0.6,16.4,0.5"/>
	<path class="st0" d="M16.9,4.1c0.1,0.1-0.1,0.5-0.3,0.5c-0.2,0-0.3-0.4-0.3-0.5C16.4,4.1,16.8,4,16.9,4.1"/>
	<path class="st0" d="M17.7,0.8c0-0.1,0.4-0.2,0.6-0.1c0.1,0.1-0.1,0.5-0.1,0.5C18.1,1.2,17.7,1,17.7,0.8"/>
	<path class="st0" d="M15.6,3.8c0,0.1-0.4,0.2-0.6,0.1c-0.1-0.1,0.1-0.5,0.1-0.5C15.2,3.4,15.6,3.6,15.6,3.8"/>
	<path class="st0" d="M18.5,2c0.1-0.1,0.5,0.1,0.5,0.3c0,0.2-0.4,0.3-0.5,0.3C18.4,2.6,18.4,2.2,18.5,2"/>
	<path class="st0" d="M14.9,2.6c-0.1,0.1-0.5-0.1-0.5-0.3c0-0.2,0.4-0.3,0.5-0.3C14.9,2,15,2.5,14.9,2.6"/>
	<path class="st0" d="M18.1,3.4c0.1,0,0.2,0.4,0.1,0.6c-0.1,0.1-0.5-0.1-0.5-0.1C17.7,3.8,18,3.4,18.1,3.4"/>
	<path class="st0" d="M15.2,1.2c-0.1,0-0.2-0.4-0.1-0.6c0.1-0.1,0.5,0.1,0.5,0.1C15.6,0.9,15.3,1.2,15.2,1.2"/>
	<path class="st2" d="M6.7,7C6.8,7.3,7,7.6,7.3,7.6c0.3,0.1,0.6-0.1,0.7-0.4c0.1-0.3,0-0.6-0.2-0.8C7.6,6.2,7.2,6.2,7,6.5
		C6.5,6.9,6.1,7.3,5.7,7.7C5.5,7.8,5.4,7.9,5.3,8c-0.6,0.5-1.5,0.4-2-0.3C2.8,7.1,3,6.2,3.6,5.8c0.6-0.4,1.5-0.2,1.9,0.4
		c0.1,0.1,0.1,0.2,0,0.3C5.4,6.6,5.3,6.8,5.1,6.9c-0.1,0-0.1-0.1-0.1-0.2C5,6.4,4.7,6.3,4.4,6.3c-0.3,0-0.5,0.2-0.6,0.5
		c-0.1,0.3,0,0.6,0.3,0.8c0.3,0.2,0.6,0.1,0.8-0.1c0.5-0.5,1-1,1.5-1.5C7,5.5,7.7,5.4,8.3,5.9c0.5,0.4,0.6,0.9,0.5,1.4
		c-0.2,0.6-0.5,0.9-1.1,1C7.1,8.4,6.5,8.2,6.2,7.7c-0.1-0.1-0.1-0.2,0-0.3C6.4,7.3,6.6,7.1,6.7,7"/>
	<path class="st2" d="M17.3,6.8c0,0.4,0,0.9,0,1.3c0,0.1,0,0.2-0.2,0.2c-0.6,0-0.6,0-0.6-0.6c0-0.6,0-1.3,0-1.9
		c0-0.2,0.1-0.3,0.2-0.2c0.1,0,0.1,0,0.2,0c0.3,0,0.3,0,0.3,0.3c0.1,0,0.1-0.1,0.2-0.1c0.4-0.3,0.9-0.3,1.3,0.1
		c0.1,0.1,0.1,0.1,0.2,0c0.2-0.2,0.4-0.3,0.6-0.3c0.6-0.1,1,0.3,1,0.9c0,0.6,0,1.1,0,1.7c0,0.1,0,0.2-0.2,0.2c-0.6,0-0.6,0-0.6-0.6
		c0-0.3,0-0.6,0-1c0-0.3-0.2-0.5-0.5-0.5c-0.3,0-0.4,0.2-0.4,0.5c0,0.4,0,0.9,0,1.3c0,0.2,0,0.2-0.2,0.2c-0.6,0-0.6,0-0.6-0.6
		c0-0.4,0-0.7,0-1.1c-0.1-0.3-0.3-0.5-0.6-0.3C17.3,6.4,17.3,6.6,17.3,6.8"/>
	<path class="st2" d="M0,5.7c0-0.4,0-0.8,0-1.3c0-0.2,0-0.2,0.2-0.2c0.5,0,0.5,0,0.5,0.5c0,0.3,0,0.5,0,0.8c0,0.2,0,0.2,0.2,0.2
		c0.8-0.3,1.7,0.2,1.9,1.1c0.1,0.8-0.5,1.5-1.2,1.6C0.7,8.4,0,7.8,0,7C0,6.6,0,6.1,0,5.7 M1.4,6.3C1,6.3,0.7,6.6,0.7,7
		c0,0.4,0.3,0.7,0.7,0.7c0.4,0,0.7-0.3,0.7-0.7C2.1,6.6,1.8,6.3,1.4,6.3"/>
	<path class="st2" d="M21.8,8.2c0,0.5,0,0.9,0,1.3c0,0.2,0,0.2-0.2,0.2c-0.5,0-0.5,0-0.5-0.5c0-0.8,0-1.5,0-2.3c0-0.6,0.4-1,0.9-1.2
		c0.5-0.2,1.1,0,1.5,0.4c0.4,0.5,0.5,1.2,0.1,1.7c-0.3,0.5-1,0.8-1.6,0.6C21.9,8.3,21.9,8.2,21.8,8.2 M23.1,6.9
		c0-0.4-0.3-0.7-0.7-0.7c-0.4,0-0.7,0.3-0.7,0.7c0,0.4,0.3,0.7,0.7,0.7C22.8,7.6,23.1,7.3,23.1,6.9"/>
	<path class="st2" d="M14.1,8.3c-0.2-0.1-0.4-0.3-0.5-0.5c-0.1-0.5,0.1-0.9,0.7-1.1c0.3-0.1,0.6-0.1,0.9,0c0.1,0,0.1,0.1,0.2,0
		c0,0,0-0.1,0-0.2c-0.1-0.2-0.3-0.3-0.5-0.3c-0.2,0-0.5,0-0.7,0.1c-0.1,0-0.2,0-0.2-0.1c-0.2-0.5-0.2-0.5,0.3-0.6
		c0.3-0.1,0.6-0.1,0.9,0C15.7,5.7,16,6,16,6.5c0,0.5,0,1.1,0,1.6c0,0.1,0,0.1-0.1,0.1c-0.2,0-0.4,0-0.5,0c-0.1-0.1,0-0.2-0.1-0.2
		C14.9,8.3,14.7,8.4,14.1,8.3 M14.8,7.8c0.1,0,0.3-0.1,0.4-0.2c0.1-0.2,0.1-0.4-0.2-0.4c-0.1,0-0.3,0-0.4,0c-0.2,0-0.4,0.2-0.4,0.4
		C14.3,7.7,14.5,7.8,14.8,7.8"/>
	<path class="st2" d="M12.1,8.3c-0.4,0-0.8-0.2-1.1-0.8c-0.3-0.5-0.2-1,0.1-1.5c0.4-0.5,0.9-0.6,1.4-0.5c0.3,0,0.5,0.2,0.7,0.3
		c0.1,0.1,0.1,0.1,0,0.2c0,0-0.1,0.1-0.1,0.1C13,6.3,13,6.4,12.9,6.5c-0.1,0.1-0.2-0.1-0.3-0.2c-0.3-0.1-0.6-0.1-0.8,0.1
		c-0.2,0.3-0.2,0.7,0,1c0.2,0.2,0.6,0.3,0.9,0.2c0.1-0.1,0.2-0.2,0.3-0.2c0.1,0,0.2,0.2,0.3,0.3c0.1,0.1,0.1,0.2,0,0.3
		C12.9,8.2,12.6,8.3,12.1,8.3"/>
	<path class="st2" d="M9.1,6.2c0-0.4,0-0.9,0-1.3c0-0.2,0.1-0.2,0.2-0.2c0.6,0,0.6,0,0.6,0.6c0,0.1,0,0.1,0,0.2c0,0.1,0,0.1,0.1,0.1
		c0,0,0,0,0,0c0.1,0,0.3-0.1,0.4,0c0.1,0.1,0,0.3,0,0.5c0,0.1-0.1,0.1-0.1,0.1c-0.2,0-0.4-0.1-0.4,0c-0.1,0.1,0,0.3,0,0.5
		c0,0.2,0,0.3,0,0.5c0,0.3,0.1,0.4,0.4,0.3c0.2-0.1,0.2,0,0.2,0.2c0,0.4,0,0.5-0.5,0.5C9.5,8.4,9.2,8.1,9.2,7.5
		C9.1,7.1,9.1,6.6,9.1,6.2"/>
	<path class="st2" d="M1.4,3.2c0-0.1,0-0.2,0-0.2c0-0.1-0.1-0.1-0.3-0.2C0.8,2.7,0.6,2.5,0.5,2.4c-0.1-0.1-0.1-0.3,0-0.6
		c0.1-0.2,0.2-0.4,0.5-0.5c0.2-0.1,0.5-0.2,0.7-0.2c0.3,0,0.5,0.1,0.6,0.2c0.1,0.2,0.2,0.4,0,0.6l0,0H1.7c0-0.1,0-0.2,0-0.3
		c0-0.1-0.1-0.1-0.2-0.1c-0.1,0-0.2,0-0.2,0.1c-0.1,0-0.1,0.1-0.1,0.2c0,0.1,0,0.2,0,0.2c0.1,0,0.2,0.1,0.4,0.2
		C1.7,2.4,1.9,2.5,2,2.6C2.1,2.8,2.1,3,2,3.2C1.9,3.5,1.8,3.6,1.6,3.8C1.3,3.9,1.1,3.9,0.8,3.9c-0.3,0-0.5-0.1-0.7-0.2
		C0,3.6,0,3.4,0.1,3.1l0,0h0.6c-0.1,0.1,0,0.2,0,0.3C0.8,3.4,0.9,3.4,1,3.4c0.1,0,0.2,0,0.2-0.1C1.3,3.3,1.4,3.3,1.4,3.2"/>
	<path class="st2" d="M3.2,3.9l0-0.2C3.1,3.8,3,3.8,2.9,3.9c-0.1,0-0.2,0.1-0.3,0.1c-0.2,0-0.3-0.1-0.4-0.2c-0.1-0.1,0-0.3,0.1-0.6
		l0.5-1.2h0.6L2.9,3.1c0,0.1-0.1,0.2,0,0.3c0,0.1,0.1,0.1,0.1,0.1c0.1,0,0.1,0,0.2,0c0.1,0,0.1,0,0.1-0.1l0.6-1.5h0.6l-0.8,2H3.2z"
		/>
	<path class="st2" d="M5.3,2.1C5.4,2,5.5,1.9,5.6,1.9c0.1,0,0.2-0.1,0.3-0.1c0.1,0,0.2,0,0.3,0.1C6.3,2,6.3,2,6.3,2.1
		C6.4,2,6.5,2,6.6,1.9C6.7,1.8,6.9,1.8,7,1.8c0.2,0,0.3,0.1,0.3,0.2c0.1,0.1,0,0.3-0.1,0.6L6.8,3.9H6.2l0.5-1.2
		c0.1-0.1,0.1-0.2,0.1-0.3c0,0-0.1-0.1-0.1-0.1c0,0-0.1,0-0.1,0c0,0-0.1,0.1-0.1,0.1c0,0,0,0,0,0.1c0,0,0,0,0,0.1L5.7,3.9H5.1
		l0.5-1.2c0.1-0.1,0.1-0.2,0.1-0.3c0,0-0.1-0.1-0.1-0.1c0,0-0.1,0-0.1,0c0,0-0.1,0-0.1,0.1L4.7,3.9H4l0.8-2h0.6L5.3,2.1z"/>
	<path class="st2" d="M8.4,2.1C8.5,2,8.6,1.9,8.7,1.9c0.1,0,0.2-0.1,0.3-0.1c0.1,0,0.2,0,0.3,0.1C9.4,2,9.4,2,9.4,2.1
		C9.5,2,9.6,2,9.7,1.9c0.1-0.1,0.2-0.1,0.4-0.1c0.2,0,0.3,0.1,0.3,0.2c0.1,0.1,0,0.3-0.1,0.6L9.9,3.9H9.3l0.5-1.2
		c0.1-0.1,0.1-0.2,0.1-0.3c0,0-0.1-0.1-0.1-0.1c0,0-0.1,0-0.1,0c0,0-0.1,0.1-0.1,0.1c0,0,0,0,0,0.1c0,0,0,0,0,0.1L8.8,3.9H8.2
		l0.5-1.2c0.1-0.1,0.1-0.2,0.1-0.3c0,0-0.1-0.1-0.1-0.1c0,0-0.1,0-0.1,0c0,0-0.1,0-0.1,0.1L7.8,3.9H7.1l0.8-2h0.6L8.4,2.1z"/>
	<path class="st2" d="M11.1,3.9c-0.3,0-0.5-0.1-0.6-0.3c-0.1-0.2-0.1-0.4,0-0.7l0-0.1c0.1-0.3,0.3-0.6,0.5-0.8
		c0.2-0.2,0.5-0.3,0.8-0.3c0.3,0,0.4,0.1,0.5,0.3c0.1,0.2,0.1,0.4,0,0.7l-0.1,0.3h-1.1l0,0c0,0.1,0,0.2,0,0.3c0,0.1,0.1,0.1,0.2,0.1
		c0.1,0,0.2,0,0.3,0c0.1,0,0.2-0.1,0.3-0.1l0,0.4c-0.1,0.1-0.2,0.1-0.4,0.2C11.4,3.9,11.3,3.9,11.1,3.9 M11.6,2.3
		c-0.1,0-0.1,0-0.2,0.1c-0.1,0.1-0.1,0.2-0.2,0.3l0,0h0.4l0,0c0-0.1,0-0.2,0-0.2C11.8,2.3,11.7,2.3,11.6,2.3"/>
	<path class="st2" d="M13.8,2.4l-0.2,0c-0.1,0-0.1,0-0.2,0c0,0-0.1,0.1-0.1,0.1l-0.5,1.3h-0.6l0.8-2h0.6l-0.1,0.3l0,0
		C13.5,2,13.6,2,13.7,1.9c0.1-0.1,0.2-0.1,0.2-0.1c0,0,0.1,0,0.1,0c0,0,0.1,0,0.1,0L13.8,2.4z"/>
</g>
</svg>
