<?xml version="1.0" encoding="utf-8"?>
<!-- Generator: Adobe Illustrator 16.0.0, SVG Export Plug-In . SVG Version: 6.00 Build 0)  -->
<!DOCTYPE svg PUBLIC "-//W3C//DTD SVG 1.1//EN" "http://www.w3.org/Graphics/SVG/1.1/DTD/svg11.dtd">
<svg version="1.1" id="Icons" xmlns="http://www.w3.org/2000/svg" xmlns:xlink="http://www.w3.org/1999/xlink" x="0px" y="0px"
	 width="98.252px" height="99.589px" viewBox="0 0 98.252 99.589" enable-background="new 0 0 98.252 99.589" xml:space="preserve">
<g>
	<g>
		<g>
			<g>
				<path fill="none" stroke="#FFFFFF" stroke-width="4" d="M89.087,2c3.958,0,7.165,3.206,7.165,7.165v7.793h-8.331"/>
				<path fill="none" stroke="#FFFFFF" stroke-width="4" d="M15.231,80.843V9.165c0-3.678,2.765-6.701,6.33-7.113
					c1.949,0,63.508,0.014,66.693,0c-3.564,0.412-6.334,3.436-6.334,7.113v80.113h-0.021l0.021,1.198c0,3.676-2.788,6.7-6.353,7.112
					c-1.951,0-63.511-0.013-66.697,0"/>
				<path fill="none" stroke="#FFFFFF" stroke-width="4" d="M68.692,86.876v3.601c0,3.676,2.768,6.7,6.333,7.112
					c-3.184-0.013-64.744,0-66.693,0C4.767,97.177,2,94.152,2,90.477v-3.601H68.692z"/>
				<path fill="none" stroke="#FFFFFF" stroke-width="4" d="M81.921,9.165C81.921,5.206,85.127,2,89.087,2
					c3.958,0,7.165,3.206,7.165,7.165v8.838"/>
				<path fill="none" stroke="#FFFFFF" stroke-width="4" d="M68.692,84.677v5.8c0,3.676,3.204,7.112,6.746,7.112"/>
			</g>
		</g>
	</g>
	<g>
		<polyline fill="none" stroke="#FFFFFF" stroke-width="4" points="67.313,67.178 67.313,78.056 62.266,74.571 57.219,78.056 
			57.219,67.178 		"/>
		<g>
			<circle fill="none" stroke="#FFFFFF" stroke-width="4" cx="62.266" cy="62.391" r="6.98"/>
		</g>
		<line fill="none" stroke="#FFFFFF" stroke-width="4" x1="62.266" y1="60.606" x2="62.266" y2="64.606"/>
	</g>
	<g>
		<line fill="none" stroke="#FFFFFF" stroke-width="4" x1="34.254" y1="16.507" x2="60.024" y2="16.507"/>
		<line fill="none" stroke="#FFFFFF" stroke-width="4" x1="25.437" y1="26.558" x2="68.842" y2="26.558"/>
		<line fill="none" stroke="#FFFFFF" stroke-width="4" x1="25.437" y1="36.448" x2="68.842" y2="36.448"/>
		<line fill="none" stroke="#FFFFFF" stroke-width="4" x1="25.437" y1="46.341" x2="68.842" y2="46.341"/>
		<line fill="none" stroke="#FFFFFF" stroke-width="4" x1="25.437" y1="56.231" x2="51.237" y2="56.231"/>
		<line fill="none" stroke="#FFFFFF" stroke-width="4" x1="25.437" y1="66.122" x2="42.571" y2="66.122"/>
	</g>
</g>
</svg>
